<svg id="Capa_1" enable-background="new 0 0 512 512" height="512" viewBox="0 0 512 512" width="512" xmlns="http://www.w3.org/2000/svg"><g><g><path d="m508.535 290.468-41.293-35.652 20.727-56.22c1.016-2.757.769-5.821-.677-8.38l-38.409-67.955c-1.236-2.187-3.25-3.828-5.642-4.599l-73.344-23.604c-1.924-.619-3.992-.641-5.929-.062l-90.205 26.977c-2.275.681-4.234 2.148-5.526 4.142l-46.167 71.214-21.736-12.842c-3.74-2.211-8.48-1.751-11.729 1.134l-67.237 59.736-42.015-3.642c-2.626-.223-5.235.592-7.26 2.276l-35.476 29.522c-1.054.877-1.916 1.961-2.533 3.186l-33.014 65.494c-1.466 2.908-1.424 6.349.114 9.221l33.582 62.726c1.74 3.251 5.128 5.28 8.816 5.28h295.257c5.523 0 10-4.478 10-10s-4.477-10-10-10h-19.482l77.187-59.788 95.456-27.33v55.5l-33.33 31.617h-30.007c-5.523 0-10 4.478-10 10s4.477 10 10 10h33.995c2.561 0 5.024-.982 6.882-2.745l39.342-37.319c1.99-1.888 3.118-4.511 3.118-7.255v-73.062c0-2.908-1.265-5.67-3.465-7.57zm-131.701-173.167 56.561 18.204 26.654 47.158-83.215-10.738zm-8.648 73.674 96.678 12.475-13.791 37.406-8.284-7.153c-1.816-1.568-4.136-2.431-6.535-2.431h-89.372c-2.44 0-4.796.892-6.624 2.508l-9.654 8.536-26.6-24.917zm-52.631 64.648-41.803 36.96 17.181-60.024zm-32.536-116.542 73.815-22.075v57.015l-72.989 30.05h-42.958zm-201.293 121.915 39.986 3.466 37.534 44.218-62.323 16.357-39.512-43.807zm-60.457 84.559 24.103-47.813 35.474 39.329-36.168 52.208zm126.314 52.865h-84.908l37.015-53.431 64.018-16.802zm-7.846-143.629 56.702-50.376 30.914 18.265c1.541.91 3.297 1.391 5.087 1.391h40.12l-24.674 86.199-82.009-24.685zm28.366 143.629 18.794-81.863c.284-1.237.315-2.496.132-3.719l60.102 18.091 25.907 67.492h-104.935zm124.579-4.636-26.149-68.122 77.308-68.352 35.428 69.406zm104.423-76.115-33.891-66.395h69.32l48.928 42.244z"/><circle cx="383.75" cy="408.422" r="10"/></g></g></svg>